<svg xmlns="http://www.w3.org/2000/svg" viewBox="0 0 64 64" role="img" aria-labelledby="title">
  <title id="title">Tech Persistence</title>
  <rect width="64" height="64" rx="16" fill="#0f766e"/>
  <path d="M18 34c0-10.5 7.1-18 16.1-18 5.2 0 9.5 2.3 12.2 6.1l-5.1 4.1c-1.6-2.3-4-3.7-7.1-3.7-5.1 0-8.8 4.6-8.8 11.5 0 6.8 3.8 11.5 9.1 11.5 3.5 0 6.2-1.8 7.7-4.8l5.6 3.3c-2.6 5.3-7.3 8.5-13.7 8.5C24.8 52.5 18 44.7 18 34Z" fill="#f8fafc"/>
  <path d="M33 13h4v38h-4z" fill="#99f6e4" opacity=".9"/>
</svg>
